<svg id="_x31_" xmlns="http://www.w3.org/2000/svg" viewBox="0 0 170 37.9"><style>.st0{fill-rule:evenodd;clip-rule:evenodd;fill:#1D1D1D;}</style><path class="st0" d="M25.6.6c.5.4.9 1.1.9 2 0 1.4-.8 2.6-2.1 3.5-2.9 2.2-6.5 2.3-9.9 2.2C-3.6 8 3.2 24 10.2 22.2c.5-.1.9.2.2.6-8 4.2-15.8-9.5-5.1-14.5 2.5-1.2 5.7-1.4 8.8-1.5 2.1 0 3.9.1 4.9.1 1.3 0 3-.4 4-1.3.6-.5.9-1.1 1-2.1 0-.7-.1-1.1-.5-1.4-.1-.1 0-1 .3-1.1-.6 0-.8.7-.9 1.2 0 .3-.1.6-.1.9-.1.8-.2 1.3-.3 2.1-.6.6-1.8 1.2-2.6 1.3l.7-4.1c0-1.9 3.4-3.2 5-1.8zm-3.7 7.1c-.6.4-1.8.7-2.6.8-.4 2.2-1.8 10.2-2.4 13.9 1-.7 2.4-2.1 3.2-3.4.7-3.8 1.3-7.5 1.8-11.3zm-2.5 15.2c-1.3.9-2.2 1.6-3 2.6-.8 4.2-1.4 7.7-1.6 8-.1.3.4.4 1.1.2.7-.2 1.4-.7 1.6-1 .2-.4 1-4.6 1.9-9.5v-.3z"/><path class="st0" d="M12.9 24.2h.8c3.2-.2 7.7-4.6 9.7-7.1.9-3.5 2.2-7 3.6-9.9.9-1.8 1.8-3.3 2.7-4.4 1.1-1.3 3.1-3 4.9-2.2C38 2 30.5 11.5 29.3 12.9c-.7.9-1.4 1.7-2.2 2.5L26 16.5c-.9 3.9-2.5 12.4 3.5 12.8 5.8.4 9.8-9.9 10.3-15.1.4-3.7-.3-7.2-3.9-7.4-.7 0-1.6-.1-.4-.8 2-1.1 4.8-1.1 6.1 1 3.2 5.3.1 14.9-3.7 19.4-.1.1-.2.3-.4.4.9-.5 2-1.3 3.1-2.2 5.5-4.4 12.1-13 14.3-19.7.4-1.2.4-2 0-2.6-.1-.1-.1-.2-.2-.2-.2-.3.3-.9.8-.9-1.7-.3-3.5 3.8-4 5-.7 1.7-1.3 3.4-1.9 5.1-.2.7-1.3 3.8-1.6 5.2-1.3 1.7-2.6 3-3.3 3.6.3-1.3.8-3.2.9-3.7C46.8 12.2 49 4.8 52 1.9c.6-.6 1.1-.9 1.9-1.3 1-.4 1.9-.5 2.5-.4.4.1.8.3 1 .7.5.7.6 1.8.1 3.1-3.1 9.4-17.2 26.3-27.2 28.2-7.1 1.3-8.4-4.1-7.9-10.1.1-1.5.4-2.4.4-2.6-.1.1-.7.7-2.3 2-.7.6-1.4 1.2-2.2 1.7-1.2.8-4.6 2.8-6.2 2.3-.9-.1-.7-1.2.8-1.3zm34-2.5c0 .2-2.4 2.9-2.7 3.3.1 1 .5 1.9 1.3 2.5 2.6 1.9 6.2 0 7.9-2.2.1-.2 0-.1.2-.2 1.1-.2 2-.4 3-.9.9-.4 2.2-1.1 3.2-1.8 1.6-1 2.9-2.3 4.1-4.2.8-1.3 2.4-4.5 0-5.1-4.3-1.1-7.7 5.6-7.5 9.3 1.2-.6 2.3-1.5 3.1-2.3 0-2.1 1.1-5.7 3.2-6.3-.2.1-.9.8-.6 1 1.7.9-1.9 5-2.6 5.7-.8.8-1.9 1.8-3 2.4-.8.4-1.5.7-2.4.7.3-1 .3-2.1 0-3.1-.3-1.1-.8-2-2.1-2h-.1c-.7 0-1.5.3-2.4.9-.4.3-.9.6-1.2 1-.5.5-.8 1.4-.6 2.1.5 1.5 1.6 2.1 3.1 2.5.2 0 .4 0 .3.2-.3.9-.9 1.6-2 1.5-2.3-.4-2.3-3.1-2.2-5zm13 1.2c-.9.7-1.9 1.3-2.7 1.8 2.3 4.3 7.9 1.5 7.7.8-.1-.3-.8-.2-1.5.1-1.6.5-3.1-1.4-3.5-2.7zm-8.3.2c.2-.6-.3-2.1-.7-2.6 0-.3.3-.7.5-.7-.6 0-.9.6-.9.7-.4 1.1.2 2.1 1.1 2.6zM27.1 12.8c1.3-1.6 2.4-3.1 3.3-4.6.6-.9 3.6-5.8 1.4-6.4.7.7-.2 1.3-.7 2.1-.6.9-1 1.8-1.5 2.7-.9 1.8-1.7 4-2.5 6.2zm49.8 13.3c1.1 1.5 4.5-.7 5.5-1.4.7-.6 1.4-1.1 1.9-1.8-.2.8-.5 2.7.1 3.4 1 .9 2.8.4 5.8-2.8-.3.9-.5 1.8-.8 2.6-.1.3.4.4 1.2.2.7-.2 1.4-.7 1.5-1 .4-1.1.7-2.3 1.1-3.5-1.2-.2-2.3-.7-3.1-1.3-1.4 2.7-2.7 4.9-3.1 4.6-1-.9.9-6.7 1.9-9.4.2-.7.4-1.3.5-1.5.1-.2-.2-.4-.7-.3-.7.1-1.5.5-1.8.9-1 1.2-2 3.5-2.8 4.9-.7 1.4-2.4 4.8-4 5.3-.2.1-.6.1-.7-.1-.1-.4 0-1.2 0-1.6.6-4.3 2.3-7.6 3.7-11.3.4-.9-2.7.7-2.7.8-.2.5-5 11.3-3.5 13.3zM94.1 19c-1.1-.7-1.8-1.3-2.3-2 1.1-2.3 1.9-4.4 2.2-5.1.1-.3 2.8-1.6 2.6-.9-.1.5-1.9 5.9-2.5 8zm-16.2-1.2c-.4 1.3-1 3.2-1.2 4.5-1.6 1.8-4 4.4-6.3 4.5-.7 0-1.3-.3-1.3-1.4 0-2 1.5-5.9 2.1-7.6.2-.4.3-.7.3-.8.1-.3.8-.8 1.5-1 .7-.2 1.3-.2 1.2.2 0 .1-.2.4-.3.9-.6 1.6-1.9 4.9-2.1 6.9 0 .2-.1 1.6.6 1.5-.2-.1-.3-.4-.2-.6.9-1 2.7-2.7 4.3-4.9.4-.8.9-1.5 1.4-2.2zm71.9-8.7c4.8-2.4 13.7-4.8 19-4.1.2 0 .4.1.6.1h.1c.2 0 .4.1.5.2V6c-.1.2-.2.5-.4.7-.5.5-1.3 1.1-2.2 1.5-.7.3-1.3.2-1.3-.2 0-.5.6-.9 1-1h.6c-.5-.1-1.7-.1-2.2-.1-5.2 0-12.6 1.9-16.5 4.3-1.1.7-1.2 1.2.2 1.3 1.4.1 2.8.1 4.2.3.1 0 .3 0 .4.1 2.3.6 3 1.8 2.2 4-.3.9-1.1 2-2.2 1.8-1.5-.4 1.4-3.4-2-4.1h-.2c-1.3-.2-2.7-.2-4-.3-.6-.1-1.4-.2-2-.4-.9-.5-.6-1.2 0-1.9 1-1.1 2.8-2.2 4.2-2.9zM12.9 37.3c-.5.1-.8 0-.6-.2.2-.2.8-.5 1.3-.6 12.4-2.2 24.7-3.9 37.1-4.9-.1.3-.2.5-.2.8-12.6 1-25.1 2.6-37.6 4.9zM55 31.2c2.5-.3 5-.4 7.5-.6l-.3.6-.1.3c-2.4.1-4.8.3-7.2.5 0-.3.1-.6.1-.8zm12.5-.8c5.5-.2 11-.4 16.4-.4 9.2 0 18.5.3 27.7.9l-.6 1.2c-9.4-.8-18.9-1.2-28.5-1.2-5.2 0-10.4.1-15.6.4l.6-.9zm48.9.9c12.7 1.1 25.3 2.8 38 5.1.7.1-1.8 1.5-2.5 1.4-12.3-2.3-24.3-4.1-36.4-5.3.3-.3.6-.8.9-1.2z"/><path class="st0" d="M75.1 13.6c.2.3-.3.7-1.1 1-.8.3-1.5.3-1.6 0-.5-.9.5-2 0-1.7-.7.4-1.6 3.4-2.7 6.9C67.8 26 65 35.7 57.8 37.3c-3 .7-6.7.1-6.8-3.7-.1-3.6 3.4-5.8 6.7-6 .3 0 1.8-.1 1.8.3.1.5-1.1 1-1.4 1-1.3.3-2.3-.5-3.4.8-1.4 1.8-1.3 5 1 6 1.6.7 3.3.1 4.6-1 1.7-1.5 2.9-4 3.8-6.1 1.1-2.7 2-5.4 2.8-8.2 1.2-3.8 2.2-7 3.8-8 1.8-.9 3.3-.7 4.4 1.2zm14.1 5.2c-.2-.2.2-.6.9-1 .7-.3 1.5-.4 1.7-.2.7.7 1.5 1.2 2.2 1.7 1.1.7 2.2 1 3.1.9.1 0 .3-.1.5-.1 1.1-3 2.8-6.1 3.1-6.4.4-.3 2.6-1.4 2.9-.4.1.1.1.3 0 .6-.1.7-.5 1.9-1.3 3.2-.4.8-.9 1.4-1.4 1.9l-.8.8c-.1.2-.1.3-.2.5-.4 1.1-.7 2.2-.8 3.1-.2 1.5-.2 1.9 1.2 1.7.5-.1 1-.2 1.5-.4 0 .4 0 .7.1 1-.8.3-4.3 1.4-5.3.6-.4-.3-.4-1.1-.3-2 .1-.8.4-1.8.7-2.9-.5.1-1 .2-1.6.3-1.4.1-2.8-.3-4.1-1.1-.6-.6-1.3-1.1-2.1-1.8zm21.1 17.1c.3-.2.5-.4.8-.6 2.2-1.8 3.9-4.6 5.2-7.7 3.5.6 8-2.1 10.9-4.3.5-1.1 1-2.2 1.6-3.3-.7.7-1.4 1.4-2.2 2-.8.7-1.7 1.3-2.5 1.8 1.4-1.9 2.7-5.5 1.6-7.7-.8-1.5-2.7-1.3-4-.8-.2.1-1.2.6-1 .9.3.5 1.9-.6 2.5 1.6.1.4.1.7.1 1.1 0 2-1.1 5-2.7 6.3-1.1.9-2.3 1-3.7.5h-.1c.4-1.2.8-2.3 1.2-3.5-1 2.1-2.3 3.7-4.1 4.7-1.1 3.1-3.2 8.3-6.5 9-1.7.3-3.3-.3-4-1.9-.1-.3-.2-.8-.2-.8 0-.4-.6-.3-.9-.3-.5.1-2.1.5-1.9 1.2.4 1.9 1.6 2.9 3.4 3.3 2.3.4 4.7-.3 6.5-1.5zm21.1-19.6c0-.2.3-.4.8-.6.7-.3 1.5-.5 1.9-.3.1.1.2.2.1.4-1.6 3.5-3.8 6.3-4.5 10.2-.1.3-.3 1.4.1 1.5.5.1 1.2-.2 1.5-.5 2.3-1.6 4.1-5.5 5.9-7.7.2-.2.3-.4.5-.6.4-.4 1.2-.7 1.9-.7.5 0 .8.1.7.3-.1.2-.3.7-.6 1.5-.4.8-3.5 7.8-2.6 8.1.3.1 1.1-.6 1.4-.8 1.5-1.1 3-2.6 4.3-4.2-.8 1.5-1.6 3-2.2 4.4-1.9 1.5-5 3.7-6.2 2.3-.6-.7 0-2.7.3-3.5-1.3 1.4-5 3.4-6.9 3-1.8-.4-.9-2.7-.5-3.9.6-1.7 1.4-3.4 2.2-5.1.6-1.4 1.4-2.6 1.9-3.8zm14.3 2.3c-1.6 2.7-2.9 5.4-4.2 8.2-.4 1-1.4 3.2 0 3.8 1.5.6 3.6-.3 4.9-.9.9-.5 1.5-.9 2.4-1.5-.3.9-.6 1.4-.6 2.4v.1c-.1 2 3.1 1 3.4.4.2-.4-.4-.4-.6-.4-.5-.1 0-1.5.1-1.9.9-2.6 2-5.6 3.4-7.9.1-.2-.2-.4-.7-.4-.2 0-.3 0-.5.1-.8.1-1.3.4-1.8.9-1.9 1.9-4.4 7.1-6.8 7.8-1.1.3-1.2-.2-1-1.1.9-3.7 3.1-7 4.9-10.2.1-.2.1-.3-.1-.4-.4-.2-1.1-.1-1.6.1-.6.2-.9.4-1.2.9zm-31.9 8c2.1-1 3.6-3.1 4.5-5.2.2-.4.3-.7.5-1.1.5-1.6.9-3.1 1.3-4.4.5-1.7 1.6-5 2.5-6.4.2-.3.5-.7.9-.6.7.1 1.3 0 1.9-.4.3-.1 1-.7.4-.9-.8-.3-1.8-.4-2.5-.2-3.1.7-4.7 5.4-5.5 8-.7 2.2-1.4 4.5-2.1 6.8v.1c-.4 1.1-.8 2-1.3 2.7-.9 1.1-1.9 1.5-2-.2-.1-.6.1-1.4.4-2.2.3-1 .5-1.5.7-1.9.5-1.4.8-2.1-.9-1.5-1 .3-1.4.8-2 1.7-.5.7-1.3 1.7-2.4 3-4.1 5-4.3-4.3.8-8.4.7-.6 1.4-.9 2.1-.9-.4 0-1 .4-.7.8.1.2.2.3.3.6.2.7 0 1.7-1 2.9-1.1 1.4-2.7 2.9-4.3 4 0 .5.1 1 .2 1.2 2.3-1.4 8.7-6.1 7.7-9.2-.4-1.3-2.1-1.5-3.3-1.2-2.8.7-5.6 4-6.6 6.1-.3.6-.6 1.3-.8 1.9-.4 1.4-.9 4 .6 4.9 1.8 1.1 5.1-.9 6.4-2.2-.1.5-.1 1-.1 1.4 0 .4.2.8.4 1.1.9.8 2.9.1 3.9-.3zm-6.4 9.5z"/></svg>