<?xml version="1.0" encoding="UTF-8"?>
<svg width="200px" height="200px" viewBox="0 0 200 200" version="1.1" xmlns="http://www.w3.org/2000/svg" xmlns:xlink="http://www.w3.org/1999/xlink">
    <!-- Generator: Sketch 41 (35326) - http://www.bohemiancoding.com/sketch -->
    <title>Slice 1</title>
    <desc>Created with Sketch.</desc>
    <defs></defs>
    <g id="Page-1" stroke="none" stroke-width="1" fill="none" fill-rule="evenodd">
        <g id="Logo_OMK">
            <g id="Слой_1">
                <g id="Group">
                    <path d="M198.799971,109.223333 C198.7536,109.153333 198.707229,109.06 198.677419,108.986667 L198.677419,108.986667 L198.677419,108.986667 C195.716302,103.42 180.301267,88.89 100,88.89 C13.859303,88.89 6.21471774,72.1566667 5.7046371,67.7333333 L5.7046371,67.7333333 C5.7046371,67.7333333 5.67151498,67.5666667 5.53571429,67.5666667 C5.4562212,67.5666667 5.39660138,67.66 5.35354263,67.7333333 C3.34634217,73.64 1.86578341,79.7733333 0.981422811,86.1166667 C0.8953053,86.8166667 0.597206221,89.65 1.34907834,91.0666667 C4.32013249,96.6533333 19.7848502,111.11 100,111.11 C187.018433,111.11 193.947581,128.1 194.321861,132.353333 L194.321861,132.353333 C194.321861,132.353333 194.338422,132.58 194.447725,132.58 C194.504032,132.58 194.53053,132.553333 194.557028,132.523333 C196.590726,126.596667 198.104407,120.41 198.995392,114.03 C199.382921,111.15 199.018577,109.756667 198.799971,109.223333 Z" id="Shape" fill="#C3C4C4"></path>
                    <path d="M6.04910714,134.193333 C6.57574885,135.373333 8.05299539,136.793333 8.15567396,136.913333 C15.3100518,143.186667 37.2468318,155.543333 99.2911866,155.543333 C170.03341,155.543333 165.730847,171.72 162.961838,176.463333 L162.961838,176.463333 C162.961838,176.463333 162.763105,176.786667 163.081077,177.05 C163.352679,177.256667 163.6839,177.056667 163.799827,176.963333 C170.507056,171.413333 176.462414,165.006667 181.520161,157.913333 C181.944124,157.29 183.424683,154.943333 183.269009,153.376667 C182.825173,147.486667 174.041187,133.31 99.2911866,133.31 C27.8865207,133.31 7.57272465,120.513333 1.93865207,114.35 L1.93865207,114.35 C1.93865207,114.35 1.59418203,113.97 1.33251728,114.083333 C1.14040899,114.176667 1.09403802,114.38 1.08741359,114.466667 C2.07776498,121.293333 3.75705645,127.88 6.04910714,134.193333 Z" id="Shape" fill="#C3C4C4"></path>
                    <path d="M193.967454,65.79 C193.447437,64.6166667 191.966878,63.17 191.864199,63.0733333 C184.713134,56.7833333 162.779666,44.4433333 100.722062,44.4433333 C29.9798387,44.4433333 34.2724654,28.2633333 37.0646601,23.5166667 L37.0646601,23.5166667 C37.0646601,23.5166667 37.2667051,23.19 36.9354839,22.93 C36.6738191,22.7233333 36.3293491,22.9233333 36.203485,23.0066667 C29.5095046,28.5666667 23.5508353,34.9766667 18.499712,42.08 C18.0790611,42.6966667 16.5951901,45.04 16.7475518,46.6066667 C17.1814516,52.4933333 25.9886233,66.6666667 100.725374,66.6666667 C172.120104,66.6666667 192.447149,79.4666667 198.09447,85.63 L198.09447,85.63 C198.09447,85.63 198.425691,86.01 198.690668,85.89 C198.886089,85.8 198.912586,85.6 198.922523,85.5 C197.925547,78.6866667 196.256192,72.0966667 193.967454,65.79 Z" id="Shape" fill="#C3C4C4"></path>
                    <path d="M194.636521,67.73 C194.610023,67.6566667 194.547091,67.5633333 194.454349,67.5633333 C194.328485,67.5633333 194.295363,67.73 194.295363,67.73 L194.295363,67.73 C193.788594,72.1533333 186.137385,88.8866667 99.9966878,88.8866667 C2.9952477,88.8866667 0.680011521,110.1 0.630328341,111.063333 C1.45506912,118.503333 3.09461406,125.69 5.44297235,132.523333 C5.46615783,132.553333 5.49596774,132.58 5.5390265,132.58 C5.66489055,132.58 5.6781394,132.353333 5.6781394,132.353333 L5.6781394,132.353333 C6.05241935,128.1 12.9915035,111.11 100,111.11 C197.186924,111.11 199.316676,89.8933333 199.366359,88.92 C198.55818,81.5933333 196.945132,74.5033333 194.636521,67.73 Z" id="Shape" fill="#00B1AC"></path>
                    <path d="M107.233871,0.27 C104.839142,0.09 102.424539,0 100,0 C66.672523,0 37.1673387,16.3066667 18.999856,41.3733333 C18.9402362,41.4666667 18.7978111,41.77 19.0362903,41.98 C19.3310772,42.22 19.7980991,41.8466667 19.7980991,41.8466667 L19.7980991,41.8466667 C27.3631912,35.9966667 50.4261233,22.2133333 100.026498,22.2133333 C158.685772,22.2166667 140.657402,2.8 107.233871,0.27 Z" id="Shape" fill="#00B1AC"></path>
                    <path d="M92.7793779,199.73 C95.1707949,199.903333 97.578773,200 100.009937,200 C133.327477,200 162.835974,183.69 181.020017,158.626667 C181.056452,158.523333 181.222062,158.226667 180.970334,158.02 C180.662298,157.766667 180.205213,158.136667 180.205213,158.136667 L180.205213,158.136667 C172.656682,163.986667 149.587126,177.783333 99.9801267,177.783333 C41.3341014,177.783333 59.3624712,197.193333 92.7793779,199.73 Z" id="Shape" fill="#00B1AC"></path>
                    <path d="M182.914603,44.0966667 C177.562068,36.1933333 171.12644,29.0966667 163.786578,23.0066667 C163.670651,22.9233333 163.336118,22.7266667 163.067828,22.93 C162.749856,23.19 162.948589,23.5166667 162.948589,23.5166667 L162.948589,23.5166667 C165.717598,28.2633333 170.020161,44.4433333 99.2779378,44.4433333 C37.2335829,44.4433333 15.296803,56.7866667 8.14904954,63.0733333 C8.03643433,63.1733333 6.5625,64.6166667 6.03585829,65.79 C3.74711982,72.0966667 2.06120392,78.6866667 1.07085253,85.4966667 C1.07747696,85.5966667 1.12384793,85.7966667 1.31595622,85.8866667 C1.57762097,86.01 1.9187788,85.6266667 1.9187788,85.6266667 L1.92540323,85.6266667 C7.56941244,79.46 27.8732719,66.6633333 99.2779378,66.6633333 C193.576613,66.6633333 182.914603,44.0966667 182.914603,44.0966667 Z" id="Shape" fill="#00B1AC"></path>
                    <path d="M17.0820853,155.856667 C22.4279954,163.763333 28.8801843,170.876667 36.2001728,176.956667 C36.3260369,177.036667 36.6738191,177.233333 36.9321717,177.026667 C37.2633929,176.763333 37.0613479,176.44 37.0613479,176.44 L37.0613479,176.44 C34.2691532,171.706667 29.9765265,155.516667 100.71875,155.516667 C162.776354,155.516667 184.709821,143.183333 191.860887,136.886667 C191.960253,136.78 193.444124,135.346667 193.964142,134.17 C196.249568,127.856667 197.922235,121.27 198.915899,114.46 C198.905962,114.356667 198.876152,114.16 198.684044,114.073333 C198.422379,113.946667 198.087846,114.33 198.087846,114.33 L198.087846,114.326667 C192.440524,120.49 172.113479,133.286667 100.71875,133.286667 C6.42669931,133.286667 17.0820853,155.856667 17.0820853,155.856667 Z" id="Shape" fill="#00B1AC"></path>
                </g>
            </g>
        </g>
    </g>
</svg>